<?xml version="1.0" encoding="UTF-8"?>
<svg id="Camada_2" data-name="Camada 2" xmlns="http://www.w3.org/2000/svg" xmlns:xlink="http://www.w3.org/1999/xlink" viewBox="0 0 379.19 40.09">
  <defs>
    <style>
      .cls-1 {
        fill: url(#Gradiente_sem_nome_121-5);
      }

      .cls-1, .cls-2, .cls-3, .cls-4, .cls-5 {
        stroke-width: 0px;
      }

      .cls-2 {
        fill: url(#Gradiente_sem_nome_121-3);
      }

      .cls-3 {
        fill: url(#Gradiente_sem_nome_121-2);
      }

      .cls-4 {
        fill: url(#Gradiente_sem_nome_121);
      }

      .cls-5 {
        fill: url(#Gradiente_sem_nome_121-4);
      }
    </style>
    <linearGradient id="Gradiente_sem_nome_121" data-name="Gradiente sem nome 121" x1="8.96" y1="18.82" x2="25.69" y2="18.82" gradientUnits="userSpaceOnUse">
      <stop offset="0" stop-color="#263640"/>
      <stop offset=".5" stop-color="#38f2f2"/>
      <stop offset="1" stop-color="#263640"/>
    </linearGradient>
    <linearGradient id="Gradiente_sem_nome_121-2" data-name="Gradiente sem nome 121" x1="0" y1="18.68" x2="16.85" y2="18.68" xlink:href="#Gradiente_sem_nome_121"/>
    <linearGradient id="Gradiente_sem_nome_121-3" data-name="Gradiente sem nome 121" x1="17.74" y1="20.04" x2="361.44" y2="20.04" xlink:href="#Gradiente_sem_nome_121"/>
    <linearGradient id="Gradiente_sem_nome_121-4" data-name="Gradiente sem nome 121" x1="353.5" y1="18.96" x2="370.23" y2="18.96" xlink:href="#Gradiente_sem_nome_121"/>
    <linearGradient id="Gradiente_sem_nome_121-5" data-name="Gradiente sem nome 121" x1="362.34" y1="18.82" x2="379.19" y2="18.82" xlink:href="#Gradiente_sem_nome_121"/>
  </defs>
  <g id="Camada_1-2" data-name="Camada 1">
    <g>
      <path class="cls-4" d="m20.55,24.25c1.72-1.61,3.78-2.86,5.1-4.84.07-.11.02-.19-.08-.26.11-.09.16-.2.04-.36-3.3-4.21-7.17-8.19-11.48-11.37-.02-.03-.06-.05-.09-.07-.02-.02-.04-.03-.06-.05-.05-.04-.19-.04-.29-.01-1.46-.03-3.06-.03-4.49.23-.16.03-.17.17,0,.2-.05.03-.07.08-.01.15,1.52,2.02,3.66,3.4,5.47,5.14,1.97,1.9,3.52,4.24,5.36,6.26-3.37,3.88-7.93,6.71-11.03,10.8-.11.15.27.2.42.14,0,0,.01,0,.02,0,1.45.35,3-.14,4.47-.09.12,0,.23-.03.31-.08.08,0,.15-.02.18-.04,2.34-1.61,4.12-3.85,6.17-5.77Zm-6.41,5.37s-.07-.02-.12-.03c-1.41-.14-2.83.2-4.24.3,3.8-3.36,7.93-6.52,11.22-10.35.05-.05.07-.1.07-.15.14-.09.2-.21.06-.37-1.89-2.05-3.52-4.33-5.44-6.34-1.77-1.86-3.99-3.32-6.01-4.9,1.36.17,2.84.11,4.17-.05,3.37,3.98,7.44,7.29,10.7,11.39.02.02.04.03.06.05-.02.02-.05.03-.06.06-1.37,2.06-3.62,3.42-5.42,5.11-1.74,1.63-3.55,3.39-5.01,5.29Z"/>
      <path class="cls-3" d="m16.44,19.36s0,0,0,0c.27-.05.5-.18.37-.36-1.53-2.18-3.36-4.08-5.28-5.91-2.03-1.93-4.07-4.07-6.34-5.72-.04-.15-.29-.32-.57-.29-1.48.14-2.96.17-4.44.31-.14.01-.18.11-.15.18-.08.11-.02.28.2.3.96.09,1.87,1.27,2.51,1.9,1.09,1.09,2.09,2.29,3.07,3.48,1.68,2.01,3.24,3.88,5.14,5.66-.1.03-.18.08-.23.14-1.48,2.07-3.87,3.36-5.63,5.21-1.73,1.83-3.93,3.65-5.04,5.91-.06.13.23.12.29.07.04-.03.07-.06.11-.09,1.47,0,2.95-.01,4.42-.04.04,0,.07,0,.1-.01,0,.02-.02.04-.03.07-.06.14.25.14.31.08,2.05-1.85,3.96-3.91,5.87-5.89,1.69-1.75,3.67-3.21,5.31-5Zm-11.25,10.32s-.1-.05-.18-.06c-1.35-.19-2.8-.07-4.15.21,2.08-1.71,3.88-3.83,5.73-5.75,1.68-1.73,3.89-2.86,5.31-4.83.06-.08.04-.15-.01-.21.12-.07.17-.17.04-.3-2.13-2.4-4.24-4.82-6.34-7.27-.95-1.11-2.38-3.02-3.99-3.73,1.07.02,2.13-.02,3.2-.12,1.3,2.04,3.48,3.65,5.22,5.29,1.99,1.88,3.85,3.85,5.52,6.02-.05.02-.1.05-.13.09-1.63,1.79-3.64,3.22-5.29,5-1.67,1.8-3.82,3.46-4.92,5.67Z"/>
      <path class="cls-2" d="m356.28,24.59c-1.92-1.82-3.89-3.59-5.8-5.43,1.96-2.17,3.95-4.28,6.03-6.33,1.68-1.65,3.49-3.26,4.86-5.18.11-.05.09-.18-.06-.2-1.53-.22-3.24-.31-4.78-.1-.1-.03-.24-.02-.29.01-2.52,1.48-4.21,3.94-6.24,5.98-1.8,1.81-3.76,3.39-5.19,5.52-.12-.02-.23-.05-.37-.05-.9,0-1.8,0-2.7,0,2.01-1.91,3.73-4.1,5.79-5.97,1.83-1.66,3.67-3.21,5.28-5.09.09-.1-.03-.15-.15-.16,0,0,.02,0,.03,0,.17-.04.18-.18,0-.21-1.29-.21-2.65-.27-3.95-.11,0-.15-.39-.12-.47-.05-3.98,3.76-8.6,6.93-11.77,11.48-.02.04-.03.07-.03.1-.93,0-1.86,0-2.79,0,3.72-3.24,7.89-6.75,10.63-10.87.01-.02,0-.02,0-.04.04,0,.08,0,.11-.01.22-.03.19-.21,0-.25-1.48-.3-3.16-.29-4.64-.02-.47.08-.41.34-.17.49-1.65,2.01-3.57,3.82-5.5,5.55-1.77,1.59-3.1,3.59-5.12,4.9-.12.08-.16.15-.15.22-3.68-.02-7.35-.06-11.03-.1.02-2.55-.09-5.09-.45-7.56-.02-.15-.36-.14-.38,0,0,.06-.01.12-.02.17-.81-.17-1.62-.24-2.43-.11-.12-.09-.36-.07-.39.06,0,0,0,0,0,0-.58.14-.39.48-.02.58-.06,2.27-.04,4.54-.03,6.81-.37,0-.75,0-1.12-.01,0-.19,0-.38,0-.57.04-1.2.32-2.58-.07-3.75.14-.05.18-.19,0-.25-.04-.01-.07-.02-.11-.03-.01-.03-.02-.06-.03-.09-.05-.1-.26-.09-.32,0-.64-.14-1.36-.16-1.98-.04-.45.09-.48.53.01.57.01,0,.02,0,.03,0-.2,1.35-.18,2.73-.12,4.12-.25,0-.5,0-.75-.01-.02-1.02-.09-2.04-.19-3.05.05-.04.05-.09-.01-.13,0-.06,0-.12-.02-.18-.01-.11-.27-.1-.28,0,0,.03,0,.06-.01.09-.38-.1-.79-.16-1.17-.2-.17-.02-.58,0-.57.26,0,.11.1.17.2.21-.16.98-.24,1.97-.27,2.97-15.16-.22-25.6-.53-40.76-.82-13.15-.25-26.32-.66-39.46-.15-6.06.23-12.72.49-18.84.63-.03-10.87-11.78-18.8-21.99-18.17-10.44.65-18.32,7.83-19.82,18.02-6.15-.15-12.86-.4-18.95-.64-13.14-.5-26.32-.09-39.46.15-15.16.28-20.9.6-36.06.82-.03-1-.12-1.99-.27-2.97.11-.03.2-.09.2-.21,0-.25-.41-.28-.57-.26-.38.04-.79.1-1.17.2,0-.03,0-.06-.01-.09-.02-.11-.27-.12-.28,0,0,.06,0,.12-.02.18-.06.04-.06.1-.01.13-.1,1.01-.17,2.03-.19,3.05-.25,0-.5,0-.75.01.07-1.39.08-2.77-.12-4.12.01,0,.02,0,.03,0,.49-.04.46-.49.01-.57-.62-.12-1.33-.09-1.98.04-.06-.09-.27-.1-.32,0-.01.03-.02.06-.03.09-.04.01-.08.02-.11.03-.18.06-.13.2,0,.25-.39,1.17-.1,2.55-.07,3.75,0,.19,0,.38,0,.57-.37,0-.75,0-1.12.01.01-2.27.03-4.54-.03-6.81.37-.1.56-.44-.02-.58h0c-.03-.13-.28-.15-.39-.06-.82-.13-1.62-.06-2.43.11,0-.06-.01-.12-.02-.17-.02-.15-.36-.16-.38,0-.37,2.47-.48,5.02-.45,7.56-3.68.04-7.35.07-11.03.1,0-.07-.03-.14-.15-.22-2.02-1.31-3.35-3.3-5.12-4.9-1.93-1.73-3.85-3.54-5.5-5.55.24-.14.29-.4-.17-.49-1.48-.27-3.16-.28-4.64.02-.19.04-.22.22,0,.25.04,0,.08,0,.11.01,0,.01-.01.02,0,.04,2.74,4.12,6.9,7.63,10.63,10.87-.93,0-1.86,0-2.79,0,0-.03,0-.06-.03-.1-3.17-4.55-7.79-7.72-11.77-11.48-.08-.08-.46-.1-.47.05-1.3-.16-2.66-.11-3.95.11-.18.03-.17.17,0,.21,0,0,.02,0,.03,0-.13,0-.24.06-.15.16,1.62,1.88,3.45,3.43,5.28,5.09,2.05,1.87,3.77,4.06,5.79,5.97-.9,0-1.8,0-2.7,0-.14,0-.25.03-.37.05-1.43-2.13-3.39-3.71-5.19-5.52-2.03-2.04-3.72-4.5-6.24-5.98-.06-.03-.2-.04-.29-.01-1.54-.21-3.25-.12-4.78.09-.15.02-.17.15-.06.2,1.37,1.93,3.18,3.53,4.86,5.18,2.08,2.05,4.08,4.16,6.03,6.33-1.9,1.84-3.87,3.61-5.8,5.43-1.84,1.74-3.21,3.88-5.05,5.63-.2.19.24.28.43.23.01,0,.02,0,.03,0,1.38.13,2.98.05,4.35-.16.3-.05.37-.18.32-.3,2.03-1.73,3.66-3.95,5.61-5.78,1.56-1.46,3.34-2.61,4.8-4.15.18.33.64.6,1.39.6.29,0,.59,0,.88,0-3.16,2.89-6.65,5.66-9.01,9.25-.11.16.29.2.42.13.5.2,1.11.13,1.64.12.91-.01,1.81-.01,2.71.08.31.03.61-.15.64-.32,2.74-3.54,6.26-6.06,9.3-9.28,1.05,0,2.09,0,3.14-.01-1.62,1.48-3.42,2.76-4.98,4.31-1.41,1.4-2.66,3.21-3.76,4.84-.07.11.15.14.26.12.37.34,1.22.32,1.69.4.86.16,1.78.29,2.65.12.23-.05.33-.16.34-.27,2.14-2.07,3.95-4.52,6.32-6.34.86-.66,3.4-1.93,3.38-3.22,3.69-.03,7.37-.07,11.06-.11.05,1.68.15,3.35.27,4.99,0,.04.02.07.04.1-.02,0-.04,0-.06,0-.25.03-.25.26,0,.3.93.16,1.94.08,2.89,0,.24.11.66.05.65-.17-.08-1.76-.1-3.51-.1-5.26.34,0,.67,0,1.01-.01-.07.96-.11,1.92.15,2.89.02.09.17.11.3.1,0,0,0,0,0,0,.72.02,1.49.09,2.21.02.3-.03.51-.38.12-.48-.07-.02-.14-.02-.21-.03-.03-.84,0-1.69.03-2.54.28,0,.56,0,.84-.01.01.6.04,1.2.07,1.79.01.2.4.24.57.14.51.09,1.09.08,1.56-.06.23-.07.24-.19.17-.29,0-.54,0-1.08,0-1.62,15.72-.24,22.03-.56,37.76-.84,13.64-.25,27.29-.6,40.92,0,6.54.29,9.41.47,15.58.39-.87,12.07,10.82,19.62,21.64,20.36.94.06,2.31-.06,2.98-.38,10.79-1.08,16.3-9.7,17.29-19.83,6.28.09,9.15-.1,15.74-.39,13.64-.61,27.28-.25,40.92,0,15.72.28,26.73.6,42.45.84,0,.54,0,1.08,0,1.62-.08.1-.06.22.17.29.47.15,1.05.16,1.56.06.17.1.55.06.57-.14.04-.6.06-1.19.07-1.79.28,0,.56,0,.84.01.04.85.06,1.7.03,2.54-.07.01-.14.01-.21.03-.39.1-.18.45.12.48.72.07,1.49,0,2.21-.02,0,0,0,0,0,0,.13.02.28-.01.3-.1.26-.97.23-1.93.15-2.89.34,0,.67,0,1.01.01,0,1.75-.01,3.51-.1,5.26-.01.23.41.28.65.17.95.09,1.96.16,2.89,0,.25-.04.25-.27,0-.3-.02,0-.04,0-.06,0,.02-.03.04-.06.04-.1.12-1.64.22-3.31.27-4.99,3.69.05,7.37.08,11.06.11-.03,1.29,2.51,2.56,3.38,3.22,2.37,1.82,4.18,4.27,6.32,6.34,0,.11.11.23.34.27.86.17,1.79.04,2.65-.12.48-.09,1.32-.06,1.69-.4.1.02.33,0,.26-.12-1.1-1.63-2.35-3.45-3.76-4.84-1.56-1.55-3.36-2.82-4.98-4.31,1.05,0,2.09,0,3.14.01,3.03,3.22,6.56,5.75,9.3,9.28.03.17.33.35.64.32.9-.1,1.8-.1,2.71-.08.53,0,1.14.08,1.64-.12.13.08.53.03.42-.13-2.36-3.59-5.86-6.35-9.01-9.25.29,0,.59,0,.88,0,.74,0,1.21-.27,1.39-.6,1.45,1.54,3.24,2.69,4.8,4.15,1.95,1.83,3.59,4.06,5.61,5.78-.05.12.02.25.32.3,1.37.22,2.97.29,4.35.16.01,0,.02,0,.03,0,.18.05.62-.04.43-.23-1.84-1.74-3.21-3.89-5.05-5.63Zm-329.09-.35c-1.57,1.47-3.62,3.34-4.4,5.42-.11-.05-.24-.09-.38-.07-.76.09-1.51.15-2.27.21-.41.03-.88.05-1.31.15,1.83-1.28,3.14-3.09,4.63-4.72,1.94-2.12,4.24-3.97,6.31-5.99.06-.06.08-.12.07-.17.06-.08.07-.17-.03-.29-3.31-3.98-7.22-8.03-11.34-11.2,1.4.11,2.84.04,4.24.11.04,0,.09,0,.13-.01,1.43,1.87,3.16,3.58,4.75,5.3,1.83,1.98,4.01,3.61,5.58,5.83-1.64,2.17-4.03,3.58-5.99,5.42Zm4.46,5.26c-.82-.12-1.64-.1-2.47-.06-.57.03-1.25.02-1.83.18,3.13-3.14,6.37-6.12,9.63-9.12,1.04,0,2.09,0,3.13-.01-2.87,2.8-6.97,5.24-8.47,9.01Zm7.03-10.82c0-.05-.01-.11-.08-.17-1.82-1.83-3.48-3.82-5.35-5.61-2.04-1.96-4.35-3.57-6.5-5.39,0,0-.02,0-.03-.01,1.18.25,2.42.1,3.62.27.15.02.3,0,.42-.06,1.09,1.87,3.11,3.15,4.72,4.52,2.21,1.88,4.28,4.14,6.04,6.45-.95,0-1.9,0-2.85,0Zm-3.29-10.87c1.25.11,2.51.05,3.76.25.01,0,.03,0,.04,0,1.25,2.28,2.97,4.02,4.92,5.78,1.72,1.56,3.05,3.52,5,4.8-.8,0-1.59.01-2.39.02,0-.05-.02-.1-.08-.15-3.82-3.47-7.31-7.39-11.25-10.7Zm10.02,15.94c-1.94,1.59-3.71,3.83-5.08,5.95-.03,0-.06,0-.1,0-.94.05-1.84-.03-2.77-.14-.31-.04-.73-.12-1.08-.06,1.59-1.21,2.72-2.94,4.11-4.37,1.62-1.66,3.59-2.93,5.28-4.52.05-.05.08-.09.09-.14,1.12,0,2.24-.02,3.36-.03-.91,1.41-2.53,2.26-3.81,3.31Zm17.13,1.55c-.17-1.66-.17-3.32-.12-4.99.57,0,1.13-.01,1.7-.02.08,1.63.2,3.26.29,4.87-.62,0-1.25.06-1.87.15Zm1.52-6.79c-.53,0-1.06.01-1.59.02.08-2.34.13-4.67-.15-6.97.73-.1,1.49,0,2.22.12-.43,2.25-.53,4.54-.48,6.83Zm2.7,4.43c-.08-.89-.07-1.79-.03-2.69.4,0,.81-.01,1.21-.02.03.84.1,1.67.25,2.48-.48,0-.97.11-1.43.23Zm1.18-4.48c-.37,0-.74.01-1.1.02.09-1.42.16-2.83.01-4.25.46.06.93.1,1.39.11-.13,1.34-.26,2.73-.3,4.12Zm2.35,3.27c-.04-.51-.06-1.02-.06-1.54.29,0,.58,0,.86-.01,0,.49.02.97.02,1.46-.28.02-.55.05-.82.09Zm.78-3.32c-.28,0-.55,0-.83.01.01-1,0-1.99-.11-2.98.38.04.76.05,1.14.03-.15.97-.19,1.95-.2,2.94Zm117.29,19.97c-.15-.04-.3-.08-.48-.09-9.92-.68-18.12-7.44-18.84-17.46-.56-7.91,4.72-15.22,11.88-18.13,9.89-4.02,20.69,2.58,23.94,11.96,3.73,10.79-5.54,23.3-16.5,23.73Zm120.54-16.51c-.27-.05-.55-.08-.82-.09,0-.48.01-.97.02-1.46.29,0,.58,0,.86.01,0,.51-.02,1.03-.06,1.54Zm.04-3.31c-.28,0-.55,0-.83-.01,0-.98-.05-1.96-.2-2.94.37.01.76,0,1.14-.03-.12.99-.13,1.98-.11,2.98Zm3.4-4.2c-.15,1.41-.08,2.83.01,4.25-.37,0-.74-.01-1.1-.02-.04-1.39-.17-2.79-.3-4.12.46,0,.93-.05,1.39-.11Zm.09,8.71c-.47-.12-.95-.22-1.43-.23.14-.81.22-1.64.25-2.48.4,0,.81.01,1.21.02.04.9.05,1.79-.03,2.69Zm4.22,2.36c-.62-.08-1.25-.15-1.87-.15.1-1.61.22-3.24.29-4.87.57,0,1.13.01,1.7.02.04,1.67.05,3.34-.12,4.99Zm.07-6.77c-.53,0-1.06-.01-1.59-.02.05-2.3-.05-4.58-.48-6.83.73-.11,1.49-.22,2.22-.12-.29,2.3-.23,4.64-.15,6.97Zm18.36-4.69c1.94-1.76,3.67-3.5,4.92-5.78.01,0,.03,0,.04,0,1.25-.2,2.51-.15,3.76-.25-3.94,3.31-7.43,7.23-11.25,10.7-.06.06-.08.11-.08.15-.8,0-1.59-.01-2.39-.02,1.95-1.28,3.28-3.25,5-4.8Zm3.61,11.28c1.38,1.42,2.52,3.16,4.11,4.37-.35-.06-.77.03-1.08.06-.93.11-1.83.19-2.77.14-.04,0-.06,0-.1,0-1.37-2.12-3.14-4.36-5.08-5.95-1.28-1.05-2.9-1.89-3.81-3.31,1.12,0,2.24.02,3.36.03,0,.04.04.09.09.14,1.69,1.58,3.67,2.86,5.28,4.52Zm-1.03-6.45c1.77-2.31,3.83-4.57,6.04-6.45,1.61-1.37,3.63-2.66,4.72-4.52.12.06.27.09.42.06,1.2-.18,2.44-.02,3.62-.27,0,0-.02,0-.03.01-2.15,1.82-4.46,3.43-6.5,5.39-1.86,1.79-3.52,3.78-5.35,5.61-.06.06-.08.12-.08.17-.95,0-1.9,0-2.85,0Zm14.17,10.95c-.58-.16-1.26-.14-1.83-.18-.82-.05-1.65-.07-2.47.06-1.5-3.77-5.61-6.21-8.47-9.01,1.04,0,2.09,0,3.13.01,3.26,3,6.5,5.98,9.63,9.12Zm7.22.17c-.76-.05-1.51-.12-2.27-.21-.14-.02-.28.01-.38.07-.77-2.08-2.83-3.94-4.4-5.42-1.96-1.84-4.35-3.26-5.99-5.42,1.57-2.22,3.75-3.85,5.58-5.83,1.59-1.72,3.32-3.44,4.75-5.3.04,0,.08.01.13.01,1.4-.07,2.84,0,4.24-.11-4.12,3.18-8.03,7.22-11.34,11.2-.1.12-.09.22-.03.29,0,.05,0,.11.07.17,2.06,2.01,4.36,3.87,6.31,5.99,1.49,1.63,2.8,3.43,4.63,4.72-.43-.1-.9-.12-1.31-.15Z"/>
      <path class="cls-5" d="m359.18,19.43c1.84-2.02,3.4-4.37,5.36-6.26,1.8-1.74,3.95-3.12,5.47-5.14.06-.07.04-.12-.01-.15.16-.03.15-.17,0-.2-1.43-.26-3.03-.26-4.49-.23-.1-.03-.24-.03-.29.01-.02.02-.04.03-.06.05-.04.02-.07.04-.09.07-4.31,3.19-8.18,7.16-11.48,11.37-.12.15-.07.27.04.35-.1.06-.15.15-.08.26,1.32,1.98,3.38,3.23,5.1,4.84,2.05,1.92,3.84,4.16,6.17,5.77.03.02.1.03.18.04.08.05.19.08.31.08,1.47-.05,3.02.43,4.47.09,0,0,.01,0,.02-.01.15.06.54.01.42-.14-3.1-4.09-7.66-6.91-11.03-10.8Zm5.98,10.31s-.08.02-.12.03c-1.45-1.89-3.26-3.65-5.01-5.29-1.8-1.69-4.04-3.04-5.42-5.11-.01-.02-.04-.04-.06-.06.02-.02.05-.03.06-.05,3.26-4.1,7.34-7.41,10.7-11.39,1.33.15,2.82.21,4.17.05-2.02,1.58-4.24,3.04-6.01,4.9-1.92,2.01-3.55,4.29-5.44,6.34-.15.16-.09.28.06.37,0,.05.02.1.07.15,3.3,3.83,7.42,6.99,11.22,10.35-1.41-.1-2.83-.44-4.24-.3Z"/>
      <path class="cls-1" d="m374.08,24.4c-1.75-1.85-4.14-3.13-5.63-5.21-.05-.07-.13-.11-.23-.14,1.9-1.78,3.47-3.65,5.14-5.66.99-1.19,1.98-2.39,3.07-3.48.64-.63,1.55-1.81,2.51-1.9.22-.02.28-.18.2-.3.04-.07,0-.17-.15-.18-1.48-.15-2.96-.18-4.44-.31-.28-.03-.53.14-.57.29-2.28,1.64-4.31,3.79-6.34,5.72-1.93,1.83-3.75,3.73-5.28,5.91-.13.18.1.31.37.36,0,0,0,0,0,0,1.63,1.79,3.62,3.25,5.31,5,1.91,1.98,3.82,4.04,5.87,5.89.07.06.37.06.31-.08,0-.02-.02-.04-.03-.07.03,0,.06.01.1.01,1.47.03,2.95.03,4.42.04.04.03.07.06.11.09.06.05.35.06.29-.07-1.11-2.26-3.3-4.09-5.04-5.91Zm4.24,5.57c-1.35-.27-2.8-.4-4.15-.21-.08.01-.14.03-.18.06-1.1-2.21-3.25-3.87-4.92-5.67-1.66-1.78-3.66-3.21-5.29-5-.03-.04-.08-.06-.13-.09,1.67-2.17,3.53-4.14,5.52-6.02,1.74-1.64,3.92-3.25,5.22-5.29,1.07.09,2.14.14,3.2.12-1.61.71-3.04,2.62-3.99,3.73-2.1,2.45-4.21,4.87-6.34,7.27-.12.14-.07.24.04.3-.05.06-.07.13-.01.21,1.42,1.98,3.63,3.1,5.31,4.83,1.86,1.92,3.65,4.04,5.73,5.75Z"/>
    </g>
  </g>
</svg>