<?xml version="1.0" encoding="UTF-8"?>
<svg id="Camada_2" data-name="Camada 2" xmlns="http://www.w3.org/2000/svg" viewBox="0 0 157.52 157.13">
  <defs>
    <style>
      .cls-1 {
        fill: #38f2f2;
        stroke-width: 0px;
      }
    </style>
  </defs>
  <g id="Camada_1-2" data-name="Camada 1">
    <path class="cls-1" d="m.46,37.87c-.71,3.13-.29,6.4-.01,9.57.7,7.99.47,16,.32,24.02-.31,16.61.38,33.29-.43,49.88-.53.46-.49,1.22.67,1.31,4.13.3,7.18.56,10.26.63-.14,2.77-.09,5.49.35,8.23-1.17.2-1.59,1.52-.04,1.63,4.57.33,7.82.61,11.24.65-.04,4.09-.07,8.18-.31,12.26-.04.73,1.68.76,1.97.1.23.1.51.17.9.15,2.66-.13,5.32-.22,7.99-.28-.03,3.51-.08,7.01-.28,10.51-.04.73,1.68.76,1.97.1.23.1.51.17.9.16,16.66-.83,33.42-.13,50.1-.44,8.02-.15,16.03-.38,24.02.32,3.17.28,6.45.69,9.57-.01.17.65,1.98.62,2.07-.17.37-3.18.52-6.37.56-9.57.37-4.42.73-8.84.53-13.3,6.46.63,27.41.35,33.86-.47,1.69-.22.55-1.55-.7-1.39-.32.04-.64.07-.96.11-6.25-.1-27.04.24-33.3.23-.35-.21-1.01-.17-1.28.11-.55.23-.74.79-.17,1.05-.49,7.46-.72,14.94-.65,22.42-4.86.89-10.16-.94-15.05-1.07-7.73-.2-15.46-.09-23.19.05-15.14.28-30.32-.46-45.45.32-.29.01-.52.08-.72.16.24-3.06.41-6.13.52-9.2,13.24-.24,26.52.14,39.75-.11,8.02-.15,16.03-.38,24.02.32,3.17.28,6.45.69,9.57-.01.17.65,1.98.62,2.07-.17.37-3.18.52-6.37.56-9.57.37-4.42.73-8.84.53-13.3,6.46.63,12.9.35,19.35-.47,1.69-.22.55-1.55-.7-1.39-.32.04-.64.08-.96.11-6.25-.1-12.53.24-18.79.23-.35-.21-1.01-.17-1.28.11-.55.23-.74.79-.17,1.05-.49,7.46-.72,14.94-.65,22.42-4.86.89-10.16-.94-15.05-1.07-7.73-.2-15.46-.09-23.19.05-11.66.21-23.34-.17-35,0,0-.02,0-.05,0-.07.09-3.36.98-7.48.21-10.75-.01-.06-.12-.05-.15,0-.06.1-.1.21-.16.31,0-.11.02-.22.02-.34.52-.43.53-1.09-.64-1.22-3.73-.41-6.77-.56-9.71-.62.25-2.87.69-6.01.08-8.62-.01-.06-.12-.05-.15,0-.06.1-.1.21-.16.31,0-.11.02-.22.02-.34.52-.43.53-1.09-.64-1.22-4.52-.49-8.05-.62-11.58-.65.14-11.42-.21-22.86,0-34.27.14-7.73.26-15.46.05-23.19-.13-4.89-1.95-10.18-1.07-15.05,7.48.07,14.96-.16,22.42-.65.26.57.82.38,1.05-.17.28-.27.32-.93.11-1.28,0-6.26.33-12.54.23-18.79.04-.32.07-.64.11-.96.16-1.25-1.17-2.39-1.39-.7-.82,6.45-1.1,12.9-.47,19.35-4.46-.19-8.88.17-13.3.53-3.19.04-6.38.19-9.57.56-.78.09-.82,1.9-.17,2.07-.71,3.13-.29,6.4-.01,9.57.7,7.99.47,16,.32,24.02-.24,12.97.11,25.98-.1,38.95-2.75,0-5.62.03-9.03,0,.73-14.92.02-29.9.3-44.84.14-7.73.26-15.46.05-23.19-.13-4.88-1.95-10.18-1.07-15.05,7.48.07,14.96-.16,22.42-.65.26.57.82.38,1.05-.17.28-.27.32-.93.11-1.28,0-6.26.33-27.05.23-33.3.04-.32.07-.64.11-.96.16-1.25-1.17-2.39-1.39-.7-.82,6.45-1.1,27.41-.47,33.86-4.46-.19-8.88.17-13.3.53-3.19.04-6.38.19-9.57.56-.78.09-.82,1.9-.17,2.07Z"/>
  </g>
</svg>