<svg width="32" height="33" viewBox="0 0 32 33" fill="none" xmlns="http://www.w3.org/2000/svg">
<path d="M28.125 0.75C29.9531 0.75 31.5 2.29688 31.5 4.125V28.875C31.5 30.7734 29.9531 32.25 28.125 32.25H18.4219V21.5625H22.5L23.2734 16.5H18.4219V13.2656C18.4219 11.8594 19.125 10.5234 21.3047 10.5234H23.4844V6.23438C23.4844 6.23438 21.5156 5.88281 19.5469 5.88281C15.6094 5.88281 13.0078 8.34375 13.0078 12.7031V16.5H8.57812V21.5625H13.0078V32.25H3.375C1.47656 32.25 0 30.7734 0 28.875V4.125C0 2.29688 1.47656 0.75 3.375 0.75H28.125Z" fill="#234E70"/>
</svg>
