<svg width="24" height="21" viewBox="0 0 24 21" fill="none" xmlns="http://www.w3.org/2000/svg">
<g clip-path="url(#clip0_2257_32010)">
<path d="M0 2.44787C0 1.43062 0.875156 0.605957 1.95469 0.605957H22.0453C23.1234 0.605957 24 1.43062 24 2.44787C24 2.87191 23.8453 3.2827 23.5594 3.60956L15.75 12.6425V18.9677C15.75 19.7539 15.0703 20.3944 14.2359 20.3944C13.8938 20.3944 13.5609 20.284 13.2938 20.0455L8.95781 16.8431C8.5125 16.5074 8.25 15.9994 8.25 15.4606V12.6425L0.439359 3.60956C0.155203 3.2827 0 2.87191 0 2.44787ZM2.57625 2.72615L10.2469 11.5956C10.4109 11.7856 10.5 12.0241 10.5 12.267V15.2883L13.5 17.5322V12.267C13.5 12.0241 13.5891 11.7856 13.7531 11.5956L21.4219 2.72615H2.57625Z" fill="#64798D"/>
</g>
<defs>
<clipPath id="clip0_2257_32010">
<rect width="24" height="21" fill="white"/>
</clipPath>
</defs>
</svg>
