<svg width="32" height="33" viewBox="0 0 32 33" fill="none" xmlns="http://www.w3.org/2000/svg">
<path d="M15.75 12.7734C17.7891 12.7734 19.4766 14.4609 19.4766 16.5C19.4766 18.6094 17.7891 20.2969 15.75 20.2969C13.6406 20.2969 11.9531 18.6094 11.9531 16.5C11.9531 14.4609 13.6406 12.7734 15.75 12.7734ZM24.4688 9.89062C25.1016 11.3672 24.9609 14.8828 24.9609 16.5C24.9609 18.1875 25.1016 21.7031 24.4688 23.1797C24.1172 24.1641 23.3438 24.9375 22.3594 25.2891C20.8828 25.9219 17.3672 25.7812 15.75 25.7812C14.0625 25.7812 10.5469 25.9219 9.07031 25.2891C8.08594 24.9375 7.3125 24.1641 6.96094 23.1797C6.39844 21.7031 6.46875 18.1875 6.46875 16.5C6.46875 14.8828 6.39844 11.3672 6.96094 9.89062C7.3125 8.90625 8.08594 8.13281 9.07031 7.78125C10.5469 7.14844 14.0625 7.28906 15.75 7.28906C17.3672 7.28906 20.8828 7.14844 22.3594 7.78125C23.3438 8.13281 24.1172 8.90625 24.4688 9.89062ZM15.75 22.2656V22.3359C18.9141 22.3359 21.5156 19.7344 21.5156 16.5703V16.5C21.5156 13.3359 18.9141 10.7344 15.75 10.7344C12.5156 10.7344 9.98438 13.3359 9.98438 16.5C9.98438 19.7344 12.5156 22.2656 15.75 22.2656ZM21.7266 11.8594C22.4297 11.8594 23.0625 11.2969 23.0625 10.5234C23.0625 9.75 22.4297 9.1875 21.7266 9.1875C20.9531 9.1875 20.3906 9.75 20.3906 10.5234C20.3906 11.2969 20.9531 11.8594 21.7266 11.8594ZM28.125 0.75C29.9531 0.75 31.5 2.29688 31.5 4.125V28.875C31.5 30.7734 29.9531 32.25 28.125 32.25H3.375C1.47656 32.25 0 30.7734 0 28.875V4.125C0 2.29688 1.47656 0.75 3.375 0.75H28.125ZM26.8594 21.1406C27 19.3125 27 13.7578 26.8594 11.9297C26.7891 10.1016 26.3672 8.48438 25.1016 7.21875C23.7656 5.88281 22.1484 5.46094 20.3906 5.39062C18.4922 5.25 12.9375 5.25 11.1094 5.39062C9.28125 5.46094 7.66406 5.88281 6.39844 7.14844C5.0625 8.48438 4.64062 10.1016 4.57031 11.8594C4.42969 13.7578 4.42969 19.3125 4.57031 21.1406C4.64062 22.9688 5.0625 24.5859 6.39844 25.8516C7.66406 27.1875 9.28125 27.6094 11.1094 27.6797C12.9375 27.8203 18.4922 27.8203 20.3906 27.6797C22.1484 27.6094 23.7656 27.1875 25.1016 25.8516C26.3672 24.5859 26.7891 22.9688 26.8594 21.1406Z" fill="#234E70"/>
</svg>
