<svg width="32" height="33" viewBox="0 0 32 33" fill="none" xmlns="http://www.w3.org/2000/svg">
<path d="M29.25 0.75C30.4453 0.75 31.5 1.80469 31.5 3.07031V30C31.5 31.2656 30.4453 32.25 29.25 32.25H2.17969C0.984375 32.25 0 31.2656 0 30V3.07031C0 1.80469 0.984375 0.75 2.17969 0.75H29.25ZM9.49219 27.75V12.7734H4.85156V27.75H9.49219ZM7.17188 10.6641C8.64844 10.6641 9.84375 9.46875 9.84375 7.99219C9.84375 6.51562 8.64844 5.25 7.17188 5.25C5.625 5.25 4.42969 6.51562 4.42969 7.99219C4.42969 9.46875 5.625 10.6641 7.17188 10.6641ZM27 27.75V19.5234C27 15.5156 26.0859 12.3516 21.375 12.3516C19.125 12.3516 17.5781 13.6172 16.9453 14.8125H16.875V12.7734H12.4453V27.75H17.0859V20.3672C17.0859 18.3984 17.4375 16.5 19.8984 16.5C22.2891 16.5 22.2891 18.75 22.2891 20.4375V27.75H27Z" fill="#234E70"/>
</svg>
