<svg width="20" height="16" viewBox="0 0 20 16" fill="none" xmlns="http://www.w3.org/2000/svg">
<path d="M0 3C0 1.61914 1.11914 0.5 2.5 0.5H17.5C18.8789 0.5 20 1.61914 20 3V13C20 14.3789 18.8789 15.5 17.5 15.5H2.5C1.11914 15.5 0 14.3789 0 13V3ZM1.25 3V4.55859L8.89062 10.1602C9.55078 10.6445 10.4492 10.6445 11.1094 10.1602L18.75 4.55859V3C18.75 2.30859 18.1914 1.75 17.5 1.75H2.46484C1.80977 1.75 1.21484 2.30859 1.21484 3H1.25ZM1.25 6.10938V13C1.25 13.6914 1.80977 14.25 2.5 14.25H17.5C18.1914 14.25 18.75 13.6914 18.75 13V6.10938L11.8477 11.168C10.7461 11.9766 9.25391 11.9766 8.15234 11.168L1.25 6.10938Z" fill="#898989"/>
</svg>
