<svg width="14" height="22" viewBox="0 0 14 22" fill="none" xmlns="http://www.w3.org/2000/svg">
<path d="M11.8641 12.4675H2.10433C0.238607 12.4675 -0.707826 14.84 0.621645 16.2216L5.52016 21.3554C6.33526 22.2149 7.67043 22.2149 8.49078 21.3554L13.3543 16.2216C14.6658 14.8419 13.7728 12.4675 11.8641 12.4675ZM7.00066 19.8015L2.13716 14.6677H11.9035L7.00066 19.8015ZM2.09864 9.49263H11.8957C13.7614 9.49263 14.7078 7.12007 13.3784 5.73853L8.48466 0.644592C7.66955 -0.214864 6.33439 -0.214864 5.51403 0.644592L0.650537 5.77841C-0.702136 7.15949 0.227707 9.49263 2.09864 9.49263ZM7.00066 2.19849L11.8641 7.3323H2.09864L7.00066 2.19849Z" fill="#64798D"/>
</svg>
