<svg width="25" height="26" viewBox="0 0 25 26" fill="none" xmlns="http://www.w3.org/2000/svg">
<path d="M22.2507 21.2307L17.121 16.101C18.2312 14.742 18.8437 13.0308 18.8437 11.1627C18.8437 6.76418 15.2785 3.2002 10.8812 3.2002C6.48381 3.2002 2.95312 6.76533 2.95312 11.1627C2.95312 15.5601 6.51788 19.1252 10.8812 19.1252C12.7489 19.1252 14.4624 18.4779 15.8195 17.401L20.9491 22.5307C21.1635 22.7121 21.4009 22.8002 21.6344 22.8002C21.8679 22.8002 22.1045 22.7105 22.284 22.531C22.6412 22.1724 22.6412 21.5905 22.2507 21.2307ZM4.79063 11.1627C4.79063 7.78552 7.53846 5.0377 10.9156 5.0377C14.2928 5.0377 17.0406 7.78552 17.0406 11.1627C17.0406 14.5399 14.2928 17.2877 10.9156 17.2877C7.53846 17.2877 4.79063 14.5391 4.79063 11.1627Z" fill="#64798D"/>
</svg>
