<svg width="32" height="33" viewBox="0 0 32 33" fill="none" xmlns="http://www.w3.org/2000/svg">
<path d="M28.125 0.75C29.9531 0.75 31.5 2.29688 31.5 4.125V28.875C31.5 30.7734 29.9531 32.25 28.125 32.25H3.375C1.47656 32.25 0 30.7734 0 28.875V4.125C0 2.29688 1.47656 0.75 3.375 0.75H28.125ZM24.6797 11.9297C25.5234 11.2969 26.3672 10.4531 27 9.53906C26.1562 9.89062 25.2422 10.1719 24.3281 10.2422C25.2422 9.67969 26.0156 8.83594 26.3672 7.71094C25.4531 8.27344 24.4688 8.625 23.4141 8.83594C22.5703 7.92188 21.375 7.35938 20.0391 7.35938C17.2266 7.35938 14.9062 9.96094 15.5391 13.0547C11.7422 12.8438 8.29688 11.0156 6.04688 8.20312C5.625 8.90625 5.41406 9.67969 5.41406 10.5938C5.41406 12.1406 6.1875 13.5469 7.45312 14.3906C6.67969 14.3906 5.97656 14.1797 5.41406 13.8281V13.8984C5.41406 16.1484 6.96094 17.9766 9.07031 18.3984C8.36719 18.6094 7.73438 18.6094 6.96094 18.4688C7.59375 20.2969 9.28125 21.6328 11.3203 21.7031C9.70312 22.8984 7.73438 23.6719 5.55469 23.6719C5.20312 23.6719 4.85156 23.6719 4.5 23.6016C6.53906 24.9375 8.92969 25.6406 11.5312 25.6406C20.0391 25.6406 24.6797 18.6094 24.6797 12.5625C24.6797 12.3516 24.6797 12.1406 24.6797 11.9297Z" fill="#234E70"/>
</svg>
