<svg width="32" height="33" viewBox="0 0 32 33" fill="none" xmlns="http://www.w3.org/2000/svg">
<path d="M13.0781 12.7734L19.8281 16.5703L13.0781 20.3672V12.7734ZM31.5 4.125V28.875C31.5 30.7734 29.9531 32.25 28.125 32.25H3.375C1.47656 32.25 0 30.7734 0 28.875V4.125C0 2.29688 1.47656 0.75 3.375 0.75H28.125C29.9531 0.75 31.5 2.29688 31.5 4.125ZM28.5469 16.5703C28.5469 16.5703 28.5469 12.3516 27.9844 10.3828C27.7031 9.25781 26.7891 8.34375 25.7344 8.0625C23.6953 7.5 15.75 7.5 15.75 7.5C15.75 7.5 7.73438 7.5 5.69531 8.0625C4.64062 8.34375 3.72656 9.25781 3.44531 10.3828C2.95312 12.3516 2.95312 16.5703 2.95312 16.5703C2.95312 16.5703 2.95312 20.7188 3.44531 22.7578C3.72656 23.8828 4.64062 24.7266 5.69531 25.0078C7.73438 25.5 15.75 25.5 15.75 25.5C15.75 25.5 23.6953 25.5 25.7344 25.0078C26.7891 24.7266 27.7031 23.8828 27.9844 22.7578C28.5469 20.7188 28.5469 16.5703 28.5469 16.5703Z" fill="#234E70"/>
</svg>
