<?xml version="1.0" encoding="UTF-8"?>
<svg id="Camada_2" data-name="Camada 2" xmlns="http://www.w3.org/2000/svg" viewBox="0 0 53.35 53.17">
  <defs>
    <style>
      .cls-1 {
        fill: #fff;
        stroke-width: 0px;
      }
    </style>
  </defs>
  <g id="Camada_1-2" data-name="Camada 1">
    <g>
      <path class="cls-1" d="m24.56,27.85c-1.17,1.12-2.36,2.23-3.51,3.37-2.52,2.49-5.01,5.01-7.53,7.5-.21.21-.53.41-.81.42-4.11.09-8.22.15-12.33.22-.1,0-.19-.02-.38-.04.16-.19.26-.34.39-.47,3.59-3.59,7.18-7.19,10.78-10.76.22-.22.57-.43.86-.43,4.04-.03,8.08-.02,12.12-.02.09,0,.18.02.27.03.04.06.09.12.13.19ZM2.85,38.09c.28.04.38.07.47.06,3-.04,5.99-.07,8.99-.14.25,0,.54-.22.73-.42,2.78-2.76,5.54-5.53,8.31-8.3.13-.13.22-.28.42-.53-.38,0-.63,0-.87,0-2.68,0-5.35.02-8.03,0-.54,0-.92.14-1.3.53-2.68,2.72-5.39,5.4-8.09,8.1-.19.19-.35.39-.63.7Z"/>
      <path class="cls-1" d="m24.49,25.66c-2.91,0-5.73,0-8.55,0-1.26,0-2.53.02-3.79-.01-.29,0-.65-.11-.85-.31C7.59,21.66,3.9,17.96.21,14.26c-.05-.05-.09-.12-.2-.28,1.14,0,2.2-.01,3.26,0,2.53.04,5.05.09,7.58.15.64.01,1.29.02,1.93.08.22.02.49.12.64.28,3.65,3.63,7.29,7.28,10.93,10.93.03.03.05.08.14.24ZM2.85,15.2c.08.14.11.22.16.27,2.92,2.93,5.85,5.85,8.79,8.76.2.19.56.3.85.31,2.8.02,5.6.02,8.4.01.2,0,.4-.04.66-.07-.1-.15-.12-.22-.17-.27-2.87-2.88-5.74-5.76-8.62-8.62-.2-.2-.57-.3-.86-.3-1.88-.05-3.76-.07-5.65-.09-1.15-.01-2.31,0-3.55,0Z"/>
      <path class="cls-1" d="m13.93,53.17c0-1.65-.02-3.2,0-4.75.03-2.55.08-5.1.16-7.66,0-.34.12-.76.34-.99,3.61-3.65,7.24-7.27,10.88-10.89.05-.05.12-.09.25-.19.03.23.07.4.07.57,0,3.92,0,7.83-.01,11.75,0,.29-.1.66-.3.85-3.68,3.71-7.39,7.41-11.09,11.11-.05.05-.12.08-.3.19Zm10.55-21.72c-.28.22-.42.32-.54.43-2.79,2.78-5.58,5.56-8.34,8.37-.24.24-.36.69-.38,1.05-.08,2-.11,4.01-.15,6.02-.02.99,0,1.99,0,2.98l.24.1c.15-.2.27-.42.45-.59,2.48-2.49,4.93-5.02,7.48-7.44.92-.87,1.32-1.74,1.26-3.02-.1-2.57-.03-5.14-.03-7.9Z"/>
      <path class="cls-1" d="m28.64,27.64c3.4,0,6.68.14,9.93-.05,2.14-.12,3.63.52,5.08,2.09,2.89,3.13,5.99,6.06,9,9.08.15.15.28.31.48.54-1.8,0-3.5.02-5.2,0-2.43-.03-4.85-.08-7.28-.15-.31,0-.7-.13-.92-.34-3.63-3.59-7.23-7.2-10.84-10.81-.07-.07-.12-.15-.26-.35Zm21.61,10.41c-.05-.07-.08-.16-.15-.22-2.93-2.93-5.85-5.85-8.79-8.76-.18-.18-.52-.28-.78-.28-2.8-.02-5.6-.01-8.4-.01-.21,0-.42.03-.72.05.22.24.35.41.5.57,2.38,2.38,4.82,4.71,7.12,7.18,1.03,1.11,2.08,1.59,3.6,1.52,2.52-.12,5.05-.03,7.63-.03Z"/>
      <path class="cls-1" d="m25.58,24.64c-.28-.26-.48-.43-.66-.62-3.46-3.45-6.91-6.9-10.35-10.37-.24-.24-.47-.61-.48-.93-.09-4.01-.15-8.03-.21-12.04,0-.14.02-.29.04-.55.22.19.39.31.54.46,3.58,3.57,7.16,7.15,10.72,10.74.22.22.42.58.42.88.03,4.02.02,8.03.02,12.05,0,.09-.02.18-.04.39Zm-1.37-2.82c.07-.04.14-.08.21-.12.02-.09.04-.18.04-.27,0-2.95.02-5.9-.01-8.84,0-.27-.21-.59-.41-.8-2.66-2.69-5.35-5.37-8.02-8.05-.27-.27-.54-.53-.91-.89-.03.27-.06.39-.05.51.05,2.97.09,5.94.17,8.91,0,.3.22.65.44.87,1.36,1.4,2.76,2.77,4.13,4.17,1.48,1.5,2.94,3.01,4.41,4.51Z"/>
      <path class="cls-1" d="m53.35,13.98c-.7.66-1.27,1.16-1.8,1.69-3.16,3.15-6.32,6.3-9.46,9.47-.36.36-.71.53-1.23.53-3.79-.02-7.59-.01-11.38-.01-.24,0-.48,0-.85,0,.18-.24.27-.37.38-.49,3.5-3.51,7.02-7,10.51-10.53.4-.41.83-.44,1.34-.45,3.96-.07,7.93-.16,11.89-.24.12,0,.23.01.61.03Zm-3.02,1.22c-.38-.03-.6-.07-.81-.06-2.85.04-5.69.08-8.54.16-.28,0-.61.19-.81.4-2.41,2.38-4.8,4.79-7.21,7.18-.5.5-1.04.95-1.56,1.43.27.21.41.24.55.24,2.87,0,5.75.02,8.62-.02.3,0,.66-.2.88-.42,2.76-2.73,5.51-5.49,8.26-8.24.18-.18.35-.37.63-.67Z"/>
      <path class="cls-1" d="m39.29,0c-.09,4.36-.17,8.57-.28,12.77,0,.24-.11.55-.27.71-3.61,3.64-7.24,7.26-10.87,10.89-.05.05-.12.08-.24.16-.03-.2-.06-.36-.06-.51,0-3.92,0-7.83.02-11.75,0-.33.14-.75.37-.98,3.64-3.68,7.31-7.33,10.97-10.99.08-.08.18-.15.37-.31Zm-10.65,21.87c.26-.21.37-.28.45-.36,2.84-2.84,5.68-5.67,8.5-8.53.19-.2.3-.56.31-.85.07-2.4.11-4.8.16-7.2.01-.65,0-1.29,0-2.04-.17.13-.26.18-.32.24-2.91,2.91-5.82,5.81-8.7,8.74-.24.24-.37.69-.38,1.05-.03,2.35-.01,4.71-.01,7.06,0,.56,0,1.12,0,1.88Z"/>
      <path class="cls-1" d="m27.67,28.62c1.13,1.17,2.15,2.24,3.18,3.29,2.5,2.51,5,5.02,7.52,7.51.45.44.69.89.69,1.54,0,2.03.08,4.06.1,6.09.02,2.03,0,4.06,0,6.1-.07-.05-.21-.13-.31-.24-3.63-3.62-7.26-7.24-10.87-10.88-.2-.21-.4-.54-.4-.81-.02-4.04-.02-8.08-.01-12.11,0-.09.03-.18.1-.48Zm10.32,21.75c.06-.11.11-.15.11-.18-.06-2.97-.14-5.94-.17-8.91,0-.53-.18-.87-.53-1.23-2.72-2.7-5.43-5.42-8.15-8.14-.14-.14-.31-.25-.54-.44-.03.26-.05.38-.05.5,0,2.87-.02,5.75.01,8.62,0,.32.21.71.44.94,2.77,2.8,5.56,5.58,8.34,8.36.17.17.35.31.54.47Z"/>
      <path class="cls-1" d="m41.63,10.24c0-1.65,0-3.3.01-4.95,0-.15.11-.33.23-.45,1.53-1.54,3.07-3.08,4.72-4.73,0,1.59-.03,3.03.01,4.47.02.7-.23,1.19-.73,1.68-1.37,1.32-2.69,2.7-4.02,4.05-.07-.02-.14-.05-.21-.07Z"/>
      <path class="cls-1" d="m42.48,11.33c1.67-1.66,3.17-3.17,4.68-4.66.13-.13.34-.26.51-.26,1.67-.02,3.35-.01,5.21-.01-1.15,1.13-2.29,2.08-3.22,3.22-1.14,1.39-2.46,1.99-4.24,1.74-.89-.12-1.82-.02-2.94-.02Z"/>
      <path class="cls-1" d="m12.1,11.7c-.31-.37-.61-.76-.95-1.1-1.09-1.11-2.21-2.2-3.29-3.32-.22-.23-.43-.58-.44-.88-.04-1.58-.02-3.17-.02-4.83.16.13.31.22.44.34,1.37,1.36,2.73,2.73,4.09,4.1.17.17.38.39.38.6.03,1.65.02,3.29.02,4.94l-.23.15Z"/>
      <path class="cls-1" d="m11.28,12.66c-1.67,0-3.35,0-5.02-.01-.15,0-.31-.13-.43-.25-1.53-1.51-3.06-3.02-4.75-4.69,1.45,0,2.69.07,3.93-.02,1.18-.09,1.98.37,2.75,1.21,1.15,1.25,2.41,2.39,3.63,3.58-.03.06-.07.12-.1.18Z"/>
      <path class="cls-1" d="m52.07,46.32c-1.89,0-3.59,0-5.28,0-.11,0-.25-.05-.33-.13-1.54-1.52-3.08-3.05-4.56-4.76,1.12,0,2.25.08,3.36-.02,1.32-.12,2.27.28,3.15,1.28,1.11,1.26,2.37,2.37,3.65,3.63Z"/>
      <path class="cls-1" d="m6.33,52.58c0-1.22.1-2.31-.02-3.38-.17-1.47.36-2.51,1.46-3.45,1.18-1.01,2.21-2.19,3.48-3.47,0,1.25-.1,2.29.02,3.29.18,1.54-.31,2.68-1.51,3.66-1.01.83-1.87,1.84-2.8,2.76-.17.17-.34.32-.62.58Z"/>
      <path class="cls-1" d="m45.74,52.68c-.43-.47-.78-.88-1.15-1.25-1.09-1.11-2.22-2.19-3.29-3.32-.24-.26-.43-.67-.44-1.02-.05-1.52-.02-3.05-.02-4.74.28.26.46.41.62.57,1.28,1.27,2.57,2.54,3.82,3.84.23.24.42.62.43.94.04,1.59.02,3.19.02,4.98Z"/>
      <path class="cls-1" d="m.04,46.37c1.65-1.64,3.19-3.17,4.74-4.7.12-.11.29-.23.44-.23,1.65-.02,3.29-.01,5.13-.01-1.05,1.07-1.94,2.01-2.87,2.92-.7.68-1.35,1.57-2.2,1.9-.87.34-1.95.11-2.94.12-.71,0-1.42,0-2.3,0Z"/>
      <path class="cls-1" d="m3.46,28.49c-1.08-.01-1.81-.79-1.78-1.91.02-1.05.8-1.78,1.87-1.76,1.03.02,1.81.82,1.81,1.84,0,1.06-.81,1.84-1.89,1.83Z"/>
      <path class="cls-1" d="m26.61,1.73c1,.01,1.85.87,1.83,1.87-.01,1.02-.84,1.82-1.87,1.82-1.09,0-1.86-.8-1.84-1.89.02-1.04.83-1.81,1.87-1.8Z"/>
      <path class="cls-1" d="m49.62,28.49c-1.04,0-1.82-.8-1.81-1.85,0-1.06.83-1.85,1.91-1.83,1.01.02,1.81.87,1.79,1.89-.02,1-.85,1.79-1.89,1.79Z"/>
      <path class="cls-1" d="m26.59,51.57c-1.05,0-1.84-.76-1.85-1.81,0-1.05.76-1.86,1.78-1.89,1.03-.03,1.92.84,1.92,1.86,0,1.01-.83,1.83-1.85,1.84Z"/>
      <path class="cls-1" d="m24.94,26.63c.01-.92.75-1.65,1.66-1.64.9,0,1.61.76,1.6,1.69-.01.93-.74,1.65-1.65,1.64-.89,0-1.63-.78-1.61-1.69Z"/>
    </g>
  </g>
</svg>